<svg xmlns="http://www.w3.org/2000/svg" width="1024" height="1024" preserveAspectRatio="none"><path fill-opacity=".098" d="M969.6 351.25q-8.6-20.85-19.4-40.85-6.1-11.35-12.9-22.4-29.35-47.55-71.55-89.8Q727.5 59.95 531.95 59.95q-195.5 0-333.75 138.25T59.95 531.95q0 195.55 138.25 333.8 138.25 138.2 333.75 138.2 195.55 0 333.8-138.2Q941.9 789.55 976.1 696q27.85-76.25 27.85-164.05 0-67.35-16.4-127.95-1.85-6.85-3.9-13.6-6.15-19.95-14.05-39.15"/><path fill="#4000bf" d="M969.7 392q-1.75-6.85-3.65-13.6-1.524-5.286-3.2-10.55-2.471-7.947-5.25-15.8-9.75-27.55-23.15-53.65-5.8-11.35-12.3-22.4-30.65-52-76.35-97.75-109-109-253.65-132.05-24.5-3.9-50.05-5.35Q527.2 40 512 40q-14.1 0-27.9.75-177.55 9.2-305.85 137.5Q40 316.5 40 512q0 195.55 138.25 333.8 84.79 84.757 191.1 117.55 54.538 16.813 114.75 19.95h.4q12.15.6 24.5.7h3q15.25 0 30.1-.8 3.5-.2 6.95-.45 30.05-2.15 58.7-7.7 11.8-2.3 23.4-5.15 120.6-30.05 214.65-124.1 72.9-72.95 107.35-161.8 27.75-71.6 30.55-153.5.3-9.2.3-18.5v-3q-.35-61.3-14.3-117"/><path fill-opacity=".2" d="M953.15 684q26.323-67.918 30.2-145.1L744.1 299.65l-454.9 435.7 248.1 248.1q2.399-.12 4.8-.25 3.5-.2 6.95-.45 30.05-2.15 58.7-7.7 11.8-2.3 23.4-5.15 120.6-30.05 214.65-124.1 72.9-72.95 107.35-161.8"/><path fill="#fff" d="M827.8 512v-1.85q-.655-129.605-92.5-221.45-92.5-92.5-223.3-92.5t-223.3 92.5q-91.845 91.845-92.5 221.45V512q0 130.8 92.5 223.3T512 827.8t223.3-92.5T827.8 512"/><path fill="#4d00c7" d="M745.6 588.2q2.206-6.912 3.95-14H274.4q1.794 7.088 4 14 10.534 33.016 30.8 62h405.6q20.266-28.984 30.8-62"/><path fill="#3800a9" d="M685.25 685.25q16.719-16.719 29.55-35.05H309.2q12.831 18.331 29.55 35.05 71.8 71.8 173.25 71.8 101.5 0 173.25-71.8"/><path fill="#5f00d2" d="M757 512.05v-1.9q-.089-13.255-1.4-26H433.35q-23.647 10.35-51.6 10.35t-51.6-10.35H268.4q-1.31 12.745-1.4 26v1.9q0 32.61 7.4 62.15h475.15q7.45-29.54 7.45-62.15"/><path fill="#6d00de" d="M290.7 456.8q-7.688-7.688-13.8-16.05-6.159 20.919-8.5 43.4h61.75q-21.503-9.403-39.45-27.35m464.9 27.35q-8.668-83.668-70.35-145.35Q613.5 267.05 512 267.05q-22.477 0-43.5 3.5 2.176 2.026 4.3 4.15 37.7 37.7 37.7 91.05t-37.7 91.05q-17.947 17.947-39.45 27.35z"/></svg>